<?xml version="1.0" standalone="no"?>
<!DOCTYPE svg PUBLIC "-//W3C//DTD SVG 20010904//EN"
 "http://www.w3.org/TR/2001/REC-SVG-20010904/DTD/svg10.dtd">
<svg version="1.0" xmlns="http://www.w3.org/2000/svg"
 width="700.000000pt" height="700.000000pt" viewBox="0 0 700.000000 700.000000"
 preserveAspectRatio="xMidYMid meet">
<metadata>
Created by potrace 1.11, written by Peter Selinger 2001-2013
</metadata>
<g transform="translate(0.000000,700.000000) scale(0.100000,-0.100000)"
fill="#000000" stroke="none">
<path d="M132 6559 c-52 -7 -91 -34 -114 -80 -17 -32 -18 -160 -18 -2251 0
-1459 3 -2226 10 -2243 12 -31 24 -44 64 -71 29 -18 60 -19 1055 -19 l1026 0
55 -32 c81 -46 129 -72 190 -106 30 -16 69 -38 85 -47 17 -10 51 -29 78 -44
137 -76 326 -180 377 -209 49 -28 105 -59 175 -97 61 -33 450 -250 515 -287
35 -20 66 -37 240 -133 52 -29 115 -64 140 -78 25 -14 70 -39 100 -55 30 -17
188 -105 350 -195 248 -139 303 -166 345 -169 93 -9 86 -18 405 532 48 83 315
542 595 1020 279 479 515 884 525 900 10 17 88 152 175 300 87 149 165 284
175 300 9 17 71 122 137 235 191 326 186 317 179 367 -3 24 -13 54 -22 68 -13
20 -1001 689 -1039 704 -5 2 -12 7 -15 10 -3 4 -154 105 -337 226 l-332 220
-3 572 c-3 563 -3 572 -24 600 -12 15 -36 37 -54 47 -32 19 -89 19 -2514 20
-1364 1 -2500 -2 -2524 -5z m4826 -2090 c0 -990 -1 -1799 -3 -1797 -2 2 -302
599 -666 1327 -364 727 -672 1335 -686 1351 -21 26 -67 45 -100 43 -7 0 -24
-1 -37 -2 -49 -2 -93 -62 -239 -323 -13 -24 -150 -263 -304 -533 -154 -269
-291 -510 -305 -535 -14 -25 -60 -106 -103 -180 -90 -156 -121 -210 -173 -302
-20 -38 -39 -68 -42 -68 -3 0 -174 170 -380 376 -214 215 -389 382 -407 390
-42 18 -64 18 -113 -2 -48 -19 -10 36 -669 -992 -62 -97 -181 -283 -264 -412
-83 -129 -156 -242 -164 -250 -11 -12 -13 298 -13 1848 l0 1862 2334 0 2334 0
0 -1801z m995 40 c380 -254 695 -464 699 -468 4 -3 -46 -96 -111 -206 -65
-110 -216 -369 -336 -575 -120 -206 -293 -503 -385 -660 -92 -157 -178 -305
-192 -330 -14 -25 -72 -124 -129 -220 -56 -96 -125 -213 -152 -260 -26 -47
-56 -98 -66 -115 -10 -16 -107 -183 -216 -370 -266 -456 -305 -520 -316 -517
-5 1 -67 34 -137 73 -70 40 -149 84 -177 99 -27 15 -70 39 -95 52 -96 54 -388
216 -445 248 -33 18 -177 98 -320 178 -143 79 -278 154 -300 166 -94 52 -520
289 -522 290 -1 1 538 1 1196 1 l1198 0 36 25 c72 49 67 -73 67 1569 0 815 2
1481 5 1481 3 0 317 -207 698 -461z m-1770 -951 c476 -954 678 -1368 667
-1368 -126 -3 -4423 0 -4426 3 -4 3 112 189 260 417 34 52 81 124 104 160 23
36 147 229 276 430 129 201 276 430 327 509 l92 143 381 -381 c251 -250 393
-385 417 -395 60 -25 124 -8 164 43 17 21 135 219 135 226 0 1 28 51 63 111
35 60 66 116 70 124 4 8 20 36 35 61 15 26 187 326 382 668 195 341 358 620
362 618 4 -1 315 -617 691 -1369z"/>
<path d="M1470 5965 c-309 -64 -539 -302 -584 -604 -24 -162 -3 -291 71 -441
39 -78 62 -109 132 -180 48 -47 100 -92 116 -100 17 -8 32 -17 35 -20 10 -12
136 -63 184 -77 75 -20 241 -24 319 -8 231 48 430 205 525 416 47 102 62 185
59 318 -3 107 -7 138 -31 206 -40 117 -98 209 -187 296 -64 63 -97 86 -181
127 -57 28 -125 55 -153 62 -73 18 -230 20 -305 5z m265 -300 c110 -32 210
-120 262 -232 151 -325 -132 -681 -482 -608 -161 34 -290 158 -334 320 -16 61
-13 166 7 232 73 231 311 357 547 288z"/>
</g>
</svg>
